<?xml version="1.0" encoding="UTF-8"?>
<svg xmlns="http://www.w3.org/2000/svg" xmlns:xlink="http://www.w3.org/1999/xlink" width="50px" height="50px" viewBox="0 0 22 25" version="1.1">
<g id="surface1">
<path style=" stroke:none;fill-rule:nonzero;fill:rgb(0%,0%,0%);fill-opacity:1;" d="M 18.703125 4.742188 C 16.648438 2.691406 13.90625 1.5625 10.992188 1.5625 C 4.984375 1.5625 0.09375 6.425781 0.09375 12.402344 C 0.09375 14.3125 0.59375 16.175781 1.546875 17.820312 L 0 23.4375 L 5.78125 21.929688 C 7.371094 22.792969 9.164062 23.246094 10.992188 23.246094 C 17 23.246094 22 18.382812 22 12.40625 C 22 9.511719 20.761719 6.792969 18.703125 4.742188 Z M 10.992188 21.421875 C 9.367188 21.421875 7.769531 20.984375 6.378906 20.164062 L 6.050781 19.96875 L 2.625 20.867188 L 3.535156 17.539062 L 3.320312 17.195312 C 2.414062 15.761719 1.9375 14.105469 1.9375 12.402344 C 1.9375 7.4375 6 3.394531 11 3.394531 C 13.421875 3.394531 15.695312 4.332031 17.40625 6.035156 C 19.113281 7.738281 20.164062 10 20.15625 12.40625 C 20.15625 17.378906 15.992188 21.421875 10.992188 21.421875 Z M 15.964844 14.671875 C 15.695312 14.539062 14.351562 13.882812 14.101562 13.796875 C 13.851562 13.703125 13.671875 13.65625 13.492188 13.929688 C 13.308594 14.203125 12.789062 14.8125 12.625 14.996094 C 12.46875 15.175781 12.304688 15.203125 12.039062 15.0625 C 10.4375 14.265625 9.382812 13.640625 8.328125 11.84375 C 8.046875 11.363281 8.609375 11.398438 9.128906 10.359375 C 9.21875 10.179688 9.171875 10.023438 9.101562 9.890625 C 9.035156 9.75 8.492188 8.417969 8.265625 7.875 C 8.042969 7.351562 7.820312 7.421875 7.648438 7.414062 C 7.492188 7.402344 7.3125 7.402344 7.132812 7.402344 C 6.949219 7.402344 6.65625 7.46875 6.40625 7.742188 C 6.152344 8.015625 5.453125 8.667969 5.453125 10 C 5.453125 11.335938 6.429688 12.625 6.5625 12.804688 C 6.695312 12.984375 8.480469 15.71875 11.21875 16.894531 C 12.945312 17.636719 13.625 17.703125 14.484375 17.574219 C 15.011719 17.496094 16.097656 16.921875 16.320312 16.285156 C 16.546875 15.648438 16.546875 15.109375 16.480469 14.996094 C 16.414062 14.875 16.234375 14.804688 15.964844 14.671875 Z M 15.964844 14.671875 "/>
</g>
</svg>
