<?xml version="1.0" encoding="UTF-8"?>
<svg xmlns="http://www.w3.org/2000/svg" xmlns:xlink="http://www.w3.org/1999/xlink" width="50px" height="50px" viewBox="0 0 25 25" version="1.1">
<g id="surface1">
<path style=" stroke:none;fill-rule:nonzero;fill:rgb(0%,0%,0%);fill-opacity:1;" d="M 0 6.25 C 0 4.523438 1.398438 3.125 3.125 3.125 L 21.875 3.125 C 23.597656 3.125 25 4.523438 25 6.25 L 25 18.75 C 25 20.472656 23.597656 21.875 21.875 21.875 L 3.125 21.875 C 1.398438 21.875 0 20.472656 0 18.75 Z M 2.34375 6.25 L 2.34375 7.328125 L 10.765625 14.242188 C 11.773438 15.074219 13.226562 15.074219 14.234375 14.242188 L 22.65625 7.328125 L 22.65625 6.207031 C 22.65625 5.820312 22.304688 5.425781 21.875 5.425781 L 3.125 5.425781 C 2.695312 5.425781 2.34375 5.820312 2.34375 6.207031 Z M 2.34375 10.359375 L 2.34375 18.75 C 2.34375 19.179688 2.695312 19.53125 3.125 19.53125 L 21.875 19.53125 C 22.304688 19.53125 22.65625 19.179688 22.65625 18.75 L 22.65625 10.359375 L 15.722656 16.054688 C 13.847656 17.59375 11.152344 17.59375 9.234375 16.054688 Z M 2.34375 10.359375 "/>
</g>
</svg>
