<?xml version="1.0" encoding="UTF-8"?>
<svg xmlns="http://www.w3.org/2000/svg" xmlns:xlink="http://www.w3.org/1999/xlink" width="50px" height="50px" viewBox="0 0 25 25" version="1.1">
<g id="surface1">
<path style=" stroke:none;fill-rule:nonzero;fill:rgb(0%,0%,0%);fill-opacity:1;" d="M 24.609375 12.5 C 24.609375 5.8125 19.1875 0.390625 12.5 0.390625 C 5.8125 0.390625 0.390625 5.8125 0.390625 12.5 C 0.390625 18.542969 4.820312 23.554688 10.609375 24.460938 L 10.609375 16 L 7.53125 16 L 7.53125 12.5 L 10.609375 12.5 L 10.609375 9.832031 C 10.609375 6.796875 12.414062 5.121094 15.179688 5.121094 C 16.507812 5.121094 17.890625 5.359375 17.890625 5.359375 L 17.890625 8.335938 L 16.367188 8.335938 C 14.859375 8.335938 14.390625 9.269531 14.390625 10.226562 L 14.390625 12.5 L 17.75 12.5 L 17.210938 16 L 14.390625 16 L 14.390625 24.460938 C 20.179688 23.554688 24.609375 18.542969 24.609375 12.5 Z M 24.609375 12.5 "/>
</g>
</svg>
