<?xml version="1.0" encoding="UTF-8"?>
<svg xmlns="http://www.w3.org/2000/svg" xmlns:xlink="http://www.w3.org/1999/xlink" width="50px" height="50px" viewBox="0 0 22 25" version="1.1">
<g id="surface1">
<path style=" stroke:none;fill-rule:nonzero;fill:rgb(0%,0%,0%);fill-opacity:1;" d="M 11.007812 6.882812 C 7.882812 6.882812 5.363281 9.390625 5.363281 12.496094 C 5.363281 15.601562 7.882812 18.105469 11.007812 18.105469 C 14.128906 18.105469 16.648438 15.601562 16.648438 12.496094 C 16.648438 9.390625 14.128906 6.882812 11.007812 6.882812 Z M 11.007812 16.140625 C 8.984375 16.140625 7.335938 14.507812 7.335938 12.496094 C 7.335938 10.484375 8.984375 8.847656 11.007812 8.847656 C 13.027344 8.847656 14.671875 10.484375 14.671875 12.496094 C 14.671875 14.507812 13.023438 16.140625 11.007812 16.140625 Z M 18.195312 6.65625 C 18.195312 7.382812 17.605469 7.964844 16.878906 7.964844 C 16.148438 7.964844 15.5625 7.378906 15.5625 6.65625 C 15.5625 5.933594 16.148438 5.347656 16.878906 5.347656 C 17.605469 5.347656 18.195312 5.933594 18.195312 6.65625 Z M 21.929688 7.984375 C 21.847656 6.230469 21.445312 4.679688 20.15625 3.398438 C 18.867188 2.117188 17.304688 1.71875 15.542969 1.632812 C 13.726562 1.527344 8.28125 1.527344 6.460938 1.632812 C 4.703125 1.710938 3.140625 2.113281 1.851562 3.394531 C 0.5625 4.671875 0.164062 6.226562 0.0742188 7.976562 C -0.03125 9.785156 -0.03125 15.199219 0.0742188 17.007812 C 0.15625 18.757812 0.5625 20.3125 1.851562 21.59375 C 3.140625 22.871094 4.699219 23.273438 6.460938 23.359375 C 8.28125 23.460938 13.726562 23.460938 15.542969 23.359375 C 17.304688 23.277344 18.867188 22.875 20.15625 21.59375 C 21.4375 20.3125 21.84375 18.757812 21.929688 17.007812 C 22.035156 15.203125 22.035156 9.789062 21.929688 7.984375 Z M 19.585938 18.945312 C 19.203125 19.902344 18.460938 20.640625 17.492188 21.023438 C 16.042969 21.597656 12.605469 21.464844 11.007812 21.464844 C 9.40625 21.464844 5.960938 21.59375 4.515625 21.023438 C 3.554688 20.644531 2.8125 19.90625 2.425781 18.945312 C 1.851562 17.503906 1.984375 14.085938 1.984375 12.496094 C 1.984375 10.902344 1.855469 7.480469 2.425781 6.046875 C 2.808594 5.085938 3.550781 4.351562 4.515625 3.964844 C 5.96875 3.394531 9.40625 3.523438 11.007812 3.523438 C 12.605469 3.523438 16.046875 3.398438 17.492188 3.964844 C 18.453125 4.34375 19.195312 5.085938 19.585938 6.046875 C 20.15625 7.484375 20.023438 10.902344 20.023438 12.496094 C 20.023438 14.085938 20.15625 17.507812 19.585938 18.945312 Z M 19.585938 18.945312 "/>
</g>
</svg>
